<?xml version="1.0" encoding="UTF-8"?><svg id="uuid-ff8cd0c7-405f-4f23-b50a-06718731d78d" xmlns="http://www.w3.org/2000/svg" viewBox="0 0 11.94 11.93"><path d="M10.47,2.43c.4,0,.72,.36,.72,.79v5.55c0,.44-.32,.79-.72,.79H1.47c-.4,0-.72-.36-.72-.79V3.22c0-.44,.32-.79,.72-.79H10.47m0-.75H1.47c-.81,0-1.47,.69-1.47,1.54v5.55c0,.85,.66,1.54,1.47,1.54H10.47c.81,0,1.47-.69,1.47-1.54V3.22c0-.85-.66-1.54-1.47-1.54h0Z" style="fill:#1b1d1f;"/><polyline points="1.99 4.87 5.97 7.13 9.95 4.87" style="fill:none; stroke:#1b1d1f; stroke-linecap:round; stroke-linejoin:round; stroke-width:.75px;"/></svg>