<?xml version="1.0" encoding="UTF-8"?><svg id="uuid-aaa1ba4f-43fa-470d-bc58-5354cd581eeb" xmlns="http://www.w3.org/2000/svg" viewBox="0 0 11.94 11.98"><path d="M3.57,.46h4.8c.39,0,.7,.35,.7,.79V10.75c0,.43-.31,.79-.7,.79H3.57c-.39,0-.7-.35-.7-.79V1.25c0-.43,.31-.79,.7-.79Z" style="fill:none; stroke:#1b1d1f; stroke-linecap:round; stroke-linejoin:round; stroke-width:.75px;"/><rect x="2.81" y="10.46" width="6.31" height=".77" style="fill:#1b1d1f;"/><path d="M2.81,.57v1.49h6.31V.57H2.81Zm3.78,.98h-1.25c-.1,0-.18-.09-.18-.21s.08-.21,.18-.21h1.25c.1,0,.18,.09,.18,.21s-.08,.21-.18,.21Z" style="fill:#1b1d1f;"/></svg>