<?xml version="1.0" encoding="UTF-8"?><svg id="uuid-44a79cb5-86ea-4ece-b59a-001db1ce2d86" xmlns="http://www.w3.org/2000/svg" viewBox="0 0 12.17 11.98"><path d="M10.69,2.43c.4,0,.72,.36,.72,.79v5.55c0,.44-.32,.79-.72,.79H1.7c-.4,0-.72-.36-.72-.79V3.22c0-.44,.32-.79,.72-.79H10.69m0-.75H1.7C.89,1.68,.22,2.37,.22,3.22v5.55c0,.85,.66,1.54,1.47,1.54H10.69c.81,0,1.47-.69,1.47-1.54V3.22c0-.85-.66-1.54-1.47-1.54h0Z" style="fill:#7f7f7f;"/><polyline points="2.21 4.87 6.19 7.13 10.18 4.87" style="fill:none; stroke:#7f7f7f; stroke-linecap:round; stroke-linejoin:round; stroke-width:.75px;"/></svg>