<?xml version="1.0" encoding="UTF-8"?><svg id="uuid-f171c72f-9c8d-4510-adb9-b3fec64219a8" xmlns="http://www.w3.org/2000/svg" viewBox="0 0 12.17 11.98"><rect x="3.04" y="6.15" width="9.1" height="2.94" style="fill:#107c42;"/><path d="M12.14,3.19V1.12c0-.36-.29-.65-.65-.65H3.69c-.36,0-.65,.29-.65,.65V3.19H12.14Z" style="fill:#33c481;"/><path d="M3.04,9.1v1.82c0,.36,.29,.65,.65,.65h7.8c.36,0,.65-.29,.65-.65v-1.82H3.04Z" style="fill:#185c37;"/><rect x="3.04" y="3.19" width="9.1" height="2.96" style="fill:#21a365;"/><path d="M3.71,.48H7.82V11.56H3.71c-.37,0-.67-.3-.67-.67V1.16c0-.37,.3-.67,.67-.67Z" style="fill:#126134; opacity:.3;"/><g><path d="M6.23,3.58v4.82c0,.34-.28,.63-.63,.63H.88c-.36,0-.63-.29-.63-.63V3.58c0-.36,.28-.63,.63-.63H5.59c.36,0,.63,.28,.63,.63Zm-1.38,4.21l-1.25-1.85,1.2-1.72h-.7l-.5,.76c-.11,.19-.23,.37-.34,.58h-.03c-.11-.19-.23-.37-.36-.58l-.5-.76h-.73l1.21,1.75-1.26,1.81h.71l.5-.81c.15-.21,.26-.4,.39-.62,.13,.21,.24,.4,.39,.62l.52,.81h.74Z" style="fill:#158249;"/><path d="M3.6,5.95l1.25,1.85h-.74l-.52-.81c-.15-.21-.26-.4-.39-.62-.13,.21-.24,.4-.39,.62l-.5,.81h-.71l1.26-1.81-1.21-1.75h.73l.5,.76c.13,.21,.24,.39,.36,.58h.03c.11-.21,.23-.39,.34-.58l.5-.76h.7l-1.2,1.72Z" style="fill:#fff;"/></g></svg>