<?xml version="1.0" encoding="UTF-8"?><svg id="uuid-e0a2141e-ae65-4550-a0bf-4c9027d1568c" xmlns="http://www.w3.org/2000/svg" viewBox="0 0 12.17 11.98"><path d="M3.79,.46h4.8c.39,0,.7,.35,.7,.79V10.75c0,.43-.31,.79-.7,.79H3.79c-.39,0-.7-.35-.7-.79V1.25c0-.43,.31-.79,.7-.79Z" style="fill:none; stroke:#7f7f7f; stroke-linecap:round; stroke-linejoin:round; stroke-width:.75px;"/><rect x="3.04" y="10.46" width="6.31" height=".77" style="fill:#7f7f7f;"/><path d="M3.04,.57v1.49h6.31V.57H3.04Zm3.78,.98h-1.25c-.1,0-.18-.09-.18-.21s.08-.21,.18-.21h1.25c.1,0,.18,.09,.18,.21s-.08,.21-.18,.21Z" style="fill:#7f7f7f;"/></svg>