<?xml version="1.0" encoding="UTF-8"?><svg id="uuid-1125598c-e966-4c34-a885-94ecbb81eae3" xmlns="http://www.w3.org/2000/svg" viewBox="0 0 12 12"><g><path d="M7.14,.61H2.78c-.64,0-1.17,.47-1.17,1.05V10.33c0,.58,.52,1.05,1.17,1.05h6.44c.64,0,1.17-.47,1.17-1.05V3.54L7.14,.61Z" style="fill:#e5252a;"/><path d="M7.97,3.54h2.41L7.14,.61V2.79c0,.42,.37,.75,.83,.75Z" style="fill:#ed676a;"/></g><g><path d="M3.4,6.6h-.51v.78c0,.11-.03,.2-.08,.25-.05,.06-.12,.09-.2,.09s-.15-.03-.2-.09c-.05-.06-.08-.14-.08-.25v-2.13c0-.12,.03-.21,.09-.26,.06-.05,.15-.08,.27-.08h.72c.21,0,.38,.02,.49,.05,.11,.03,.21,.08,.29,.16,.08,.07,.14,.16,.19,.27,.04,.11,.06,.22,.06,.36,0,.28-.09,.49-.26,.64s-.43,.22-.78,.22Zm-.14-1.27h-.38v.85h.38c.13,0,.24-.01,.33-.04s.16-.07,.2-.14c.05-.06,.07-.15,.07-.25,0-.12-.04-.22-.11-.3-.08-.08-.25-.12-.5-.12Z" style="fill:#fff;"/><path d="M5.25,4.91h.73c.19,0,.35,.02,.49,.05,.14,.03,.26,.1,.37,.2,.29,.25,.43,.62,.43,1.12,0,.17-.01,.32-.04,.45s-.07,.26-.13,.37c-.06,.11-.14,.21-.23,.3-.07,.07-.16,.12-.24,.16s-.18,.07-.28,.08c-.1,.02-.22,.03-.34,.03h-.73c-.1,0-.18-.02-.23-.05-.05-.03-.08-.07-.1-.13s-.02-.13-.02-.22v-2.03c0-.12,.03-.21,.08-.26s.14-.08,.26-.08Zm.22,.44v1.88h.43c.09,0,.17,0,.22,0,.05,0,.11-.02,.16-.04,.06-.02,.11-.05,.15-.09,.19-.16,.28-.43,.28-.82,0-.27-.04-.48-.12-.61s-.18-.22-.3-.26c-.12-.04-.27-.06-.44-.06h-.37Z" style="fill:#fff;"/><path d="M9.41,5.34h-1.1v.71h.92c.09,0,.15,.02,.19,.06s.06,.09,.06,.15-.02,.11-.06,.15c-.04,.04-.11,.06-.19,.06h-.92v.91c0,.12-.03,.2-.08,.26-.05,.06-.12,.08-.2,.08s-.15-.03-.2-.08c-.05-.06-.08-.14-.08-.26v-2.13c0-.08,.01-.15,.04-.2,.02-.05,.06-.09,.11-.11s.12-.03,.2-.03h1.32c.09,0,.16,.02,.2,.06,.04,.04,.06,.09,.06,.16s-.02,.12-.06,.16c-.04,.04-.11,.06-.2,.06Z" style="fill:#fff;"/></g></svg>