<?xml version="1.0" encoding="UTF-8"?><svg id="uuid-55279c3c-9c99-4f5f-bd0d-eee2d4534038" xmlns="http://www.w3.org/2000/svg" viewBox="0 0 12 12"><path d="M11.38,7.19v-2.38h-1.32c-.09-.29-.2-.57-.35-.84l.93-.93-1.69-1.69-.93,.93c-.26-.14-.54-.26-.84-.35V.62h-2.38V1.94c-.29,.09-.57,.2-.84,.35l-.93-.93-1.69,1.69,.93,.93c-.14,.26-.26,.54-.35,.84H.62v2.38H1.94c.09,.29,.2,.57,.35,.84l-.93,.93,1.69,1.69,.93-.93c.26,.14,.54,.26,.84,.35v1.32h2.38v-1.32c.29-.09,.57-.2,.84-.35l.93,.93,1.69-1.69-.93-.93c.14-.26,.26-.54,.35-.84h1.32Z" style="fill:none; stroke:#7f7f7f; stroke-linecap:round; stroke-linejoin:round; stroke-width:.75px;"/><circle cx="6" cy="6" r="2.08" style="fill:none; stroke:#7f7f7f; stroke-linecap:round; stroke-linejoin:round; stroke-width:.75px;"/></svg>