<?xml version="1.0" encoding="UTF-8"?><svg id="uuid-cbfe40b1-58bb-4587-9816-656f4770f936" xmlns="http://www.w3.org/2000/svg" viewBox="0 0 12 12"><path d="M1.23,3.56c.05-.55,.39-1.03,.9-1.26l.21-.1c.25-.11,.46-.29,.62-.51l.13-.19c.32-.45,.86-.7,1.41-.64l.23,.02c.27,.03,.54-.02,.79-.13l.21-.1c.5-.23,1.09-.17,1.54,.15l.19,.13c.22,.16,.48,.25,.75,.28l.23,.02c.55,.05,1.03,.39,1.26,.9l.1,.21c.11,.25,.29,.46,.51,.62l.19,.13c.45,.32,.7,.86,.64,1.41l-.02,.23c-.03,.27,.02,.54,.13,.79l.1,.21c.23,.5,.17,1.09-.15,1.54l-.13,.19c-.16,.22-.25,.48-.28,.75l-.02,.23c-.05,.55-.39,1.03-.9,1.26l-.21,.1c-.25,.11-.46,.29-.62,.51l-.13,.19c-.32,.45-.86,.7-1.41,.64l-.23-.02c-.27-.03-.54,.02-.79,.13l-.21,.1c-.5,.23-1.09,.17-1.54-.15l-.19-.13c-.22-.16-.48-.25-.75-.28l-.23-.02c-.55-.05-1.03-.39-1.26-.9l-.1-.21c-.11-.25-.29-.46-.51-.62l-.19-.13c-.45-.32-.7-.86-.64-1.41l.02-.23c.03-.27-.02-.54-.13-.79l-.1-.21c-.23-.5-.17-1.09,.15-1.54" style="fill:none; stroke:#1b1d1f; stroke-linecap:round; stroke-linejoin:round; stroke-width:.75px;"/><path d="M9.96,5.72c.08,1.14-.33,2.31-1.23,3.16-1.59,1.51-4.1,1.45-5.61-.14s-1.45-4.1,.14-5.61,4.1-1.45,5.61,.14" style="fill:none; stroke:#1b1d1f; stroke-linecap:round; stroke-linejoin:round; stroke-width:.75px;"/><polyline points="3.79 6.35 4.91 7.43 8.21 4.57" style="fill:none; stroke:#1b1d1f; stroke-linecap:round; stroke-linejoin:round; stroke-width:.75px;"/></svg>