<?xml version="1.0" encoding="utf-8"?>
<!-- Generator: Adobe Illustrator 26.5.3, SVG Export Plug-In . SVG Version: 6.00 Build 0)  -->
<svg version="1.1" id="a" xmlns="http://www.w3.org/2000/svg" xmlns:xlink="http://www.w3.org/1999/xlink" x="0px" y="0px"
	 viewBox="0 0 18 18" style="enable-background:new 0 0 18 18;" xml:space="preserve">
<style type="text/css">
	.st0{fill:none;stroke:#C6C6C6;stroke-linecap:round;stroke-linejoin:round;}
</style>
<path class="st0" d="M14.5,14.8l-1.7,0.3c-0.2,0-0.4,0.1-0.5,0.3l-1.1,1.2c-0.3,0.3-0.7,0.4-1.1,0.2l-1.5-0.7
	c-0.2-0.1-0.4-0.1-0.6-0.1l-1.7,0.3c-0.4,0.1-0.8-0.1-1.1-0.5l-0.8-1.5c-0.1-0.2-0.3-0.3-0.4-0.4l-1.5-0.7c-0.4-0.2-0.6-0.6-0.6-1
	L2,10.7c0-0.2,0-0.4-0.1-0.6L1,8.7C0.8,8.3,0.9,7.8,1.1,7.5l1.1-1.2c0.1-0.2,0.2-0.3,0.3-0.6L2.7,4c0-0.4,0.4-0.8,0.8-0.9l1.7-0.3
	c0.2,0,0.4-0.1,0.5-0.3l1.1-1.2C7.1,1,7.6,0.9,8,1.1l1.5,0.7c0.2,0.1,0.4,0.1,0.6,0.1l1.7-0.3c0.4-0.1,0.8,0.1,1.1,0.5l0.8,1.5
	c0.1,0.2,0.3,0.3,0.4,0.4l1.5,0.7c0.4,0.2,0.6,0.6,0.6,1L16,7.3c0,0.2,0,0.4,0.1,0.6L17,9.3c0.2,0.4,0.2,0.8-0.1,1.2l-1.1,1.2
	c-0.1,0.2-0.2,0.3-0.3,0.6L15.3,14C15.2,14.4,14.9,14.7,14.5,14.8z"/>
<polyline class="st0" points="6.6,9.5 7.9,10.8 11.4,7.2 "/>
<circle class="st0" cx="9" cy="9" r="5.6"/>
</svg>
