<?xml version="1.0" encoding="UTF-8"?><svg id="uuid-e4b3c959-f614-4b91-9bb0-c1bf56bc3dd0" xmlns="http://www.w3.org/2000/svg" viewBox="0 0 12 12"><path d="M9.08,8.95H.67V2.85c0-.2,.16-.37,.36-.37,.67,0,2.06,0,2.39,0,.05,0,.09,0,.14,.03,.25,.1,1.18,.48,1.43,.59,.04,.02,.09,.03,.14,.03h3.59c.2,0,.37,.16,.37,.36,0,1.28,0,5.46,0,5.46Z" style="fill:#7f7f7f;"/><path d="M2.71,4.82L.67,8.95H9.22l2.07-4.11c.12-.25-.05-.54-.33-.54H3.55c-.36,0-.68,.2-.84,.52Z" style="fill:#afafaf;"/><g><path d="M8.2,8.52c-.84,0-1.53-.69-1.53-1.53s.68-1.53,1.53-1.53,1.53,.69,1.53,1.53-.68,1.53-1.53,1.53Zm0-2.68c-.63,0-1.14,.51-1.14,1.15s.51,1.15,1.14,1.15,1.14-.51,1.14-1.15-.51-1.15-1.14-1.15Z" style="fill:#7f7f7f;"/><path d="M10.46,9.52s-.1-.02-.14-.06l-1.31-1.31c-.07-.07-.07-.2,0-.27,.07-.07,.2-.07,.27,0l1.31,1.31c.07,.08,.07,.2,0,.27-.04,.04-.09,.06-.14,.06Z" style="fill:#7f7f7f;"/></g></svg>