<?xml version="1.0" encoding="UTF-8"?><svg xmlns="http://www.w3.org/2000/svg" viewBox="0 0 12 12"><g id="uuid-27d73c58-c892-4a2a-a656-c8dd6aa88702"><path d="M11.07,2.75c-.56-1.01-1.45-1.52-2.59-1.53-1.04,0-1.86,.46-2.48,1.31-.62-.85-1.45-1.32-2.48-1.31-1.14,.01-2.03,.52-2.59,1.53-.55,.99-.54,2.01,.09,2.95,.4,.6,4.69,5.08,4.98,5.08s4.58-4.48,4.98-5.08c.63-.94,.64-1.96,.09-2.95Z" style="fill:#1b1d1f;"/></g><g id="uuid-659f4607-c850-4388-892a-2050d7e8de94"><path d="M11.07,2.75c-.56-1.01-1.45-1.52-2.59-1.53-1.04,0-1.86,.46-2.48,1.31-.62-.85-1.45-1.32-2.48-1.31-1.14,.01-2.03,.52-2.59,1.53-.55,.99-.54,2.01,.09,2.95,.4,.6,4.69,5.08,4.98,5.08s4.58-4.48,4.98-5.08c.63-.94,.64-1.96,.09-2.95Z" style="fill:none; stroke:#1b1d1f; stroke-linecap:round; stroke-linejoin:round; stroke-width:.75px;"/></g></svg>