<?xml version="1.0" encoding="utf-8"?>
<!-- Generator: Adobe Illustrator 26.5.3, SVG Export Plug-In . SVG Version: 6.00 Build 0)  -->
<svg version="1.1" id="a" xmlns="http://www.w3.org/2000/svg" xmlns:xlink="http://www.w3.org/1999/xlink" x="0px" y="0px"
	 viewBox="0 0 18 18" style="enable-background:new 0 0 18 18;" xml:space="preserve">
<style type="text/css">
	.st0{fill:none;stroke:#4F4F4F;stroke-linecap:round;stroke-linejoin:round;}
</style>
<g>
	<path class="st0" d="M4.9,12.2h12c0.2,0,0.4,0.2,0.4,0.4v1.8c0,0.2-0.2,0.4-0.4,0.4H1.1c-0.2,0-0.4-0.2-0.4-0.4v-1.8
		c0-0.2,0.2-0.4,0.4-0.4h1.4"/>
	<path class="st0" d="M10.7,4c3.4,0.8,5.9,3.7,5.9,7.2v1"/>
	<path class="st0" d="M1.4,12.2v-1c0-3.5,2.5-6.5,5.9-7.2"/>
	<path class="st0" d="M7.3,8.7V3.9c0-0.4,0.3-0.7,0.7-0.7H10c0.4,0,0.7,0.3,0.7,0.7v4.9"/>
</g>
</svg>
